G04 #@! TF.GenerationSoftware,KiCad,Pcbnew,10.0.6*
G04 #@! TF.CreationDate,2026-09-29T12:08:35+10:00*
G04 #@! TF.ProjectId,apppd,61707070-642e-46b6-9963-61645f706362,rev?*
G04 #@! TF.SameCoordinates,Original*
G04 #@! TF.FileFunction,Soldermask,Top*
G04 #@! TF.FilePolarity,Negative*
%FSLAX46Y46*%
G04 Gerber Fmt 4.6, Leading zero omitted, Abs format (unit mm)*
G04 Created by KiCad (PCBNEW 10.0.6) date 2026-09-29 12:08:35*
%MOMM*%
%LPD*%
G01*
G04 APERTURE LIST*
G04 Aperture macros list*
%AMRoundRect*
0 Rectangle with rounded corners*
0 $1 Rounding radius*
0 $2 $3 $4 $5 $6 $7 $8 $9 X,Y pos of 4 corners*
0 Add a 4 corners polygon primitive as box body*
4,1,4,$2,$3,$4,$5,$6,$7,$8,$9,$2,$3,0*
0 Add four circle primitives for the rounded corners*
1,1,$1+$1,$2,$3*
1,1,$1+$1,$4,$5*
1,1,$1+$1,$6,$7*
1,1,$1+$1,$8,$9*
0 Add four rect primitives between the rounded corners*
20,1,$1+$1,$2,$3,$4,$5,0*
20,1,$1+$1,$4,$5,$6,$7,0*
20,1,$1+$1,$6,$7,$8,$9,0*
20,1,$1+$1,$8,$9,$2,$3,0*%
G04 Aperture macros list end*
%ADD10RoundRect,0.160000X0.197500X0.160000X-0.197500X0.160000X-0.197500X-0.160000X0.197500X-0.160000X0*%
%ADD11RoundRect,0.155000X-0.212500X-0.155000X0.212500X-0.155000X0.212500X0.155000X-0.212500X0.155000X0*%
%ADD12RoundRect,0.150000X-0.587500X-0.150000X0.587500X-0.150000X0.587500X0.150000X-0.587500X0.150000X0*%
%ADD13C,2.000000*%
%ADD14RoundRect,0.162500X-0.617500X-0.162500X0.617500X-0.162500X0.617500X0.162500X-0.617500X0.162500X0*%
%ADD15C,5.500000*%
%ADD16RoundRect,0.160000X-0.197500X-0.160000X0.197500X-0.160000X0.197500X0.160000X-0.197500X0.160000X0*%
%ADD17RoundRect,0.160000X0.160000X-0.197500X0.160000X0.197500X-0.160000X0.197500X-0.160000X-0.197500X0*%
%ADD18RoundRect,0.155000X-0.155000X0.212500X-0.155000X-0.212500X0.155000X-0.212500X0.155000X0.212500X0*%
%ADD19R,1.200000X1.200000*%
%ADD20R,1.860000X1.230000*%
%ADD21RoundRect,0.155000X0.212500X0.155000X-0.212500X0.155000X-0.212500X-0.155000X0.212500X-0.155000X0*%
%ADD22RoundRect,0.155000X0.155000X-0.212500X0.155000X0.212500X-0.155000X0.212500X-0.155000X-0.212500X0*%
%ADD23C,1.900000*%
%ADD24C,0.650000*%
%ADD25R,1.100000X0.550000*%
%ADD26R,1.100000X0.300000*%
%ADD27O,2.000000X1.100000*%
%ADD28O,1.800000X1.200000*%
%ADD29RoundRect,0.050000X0.300000X-0.150000X0.300000X0.150000X-0.300000X0.150000X-0.300000X-0.150000X0*%
%ADD30C,1.574800*%
%ADD31RoundRect,0.237500X0.300000X0.237500X-0.300000X0.237500X-0.300000X-0.237500X0.300000X-0.237500X0*%
%ADD32RoundRect,0.150000X-0.512500X-0.150000X0.512500X-0.150000X0.512500X0.150000X-0.512500X0.150000X0*%
%ADD33RoundRect,0.249999X-0.956501X-1.464501X0.956501X-1.464501X0.956501X1.464501X-0.956501X1.464501X0*%
%ADD34RoundRect,0.250000X-0.325000X-0.450000X0.325000X-0.450000X0.325000X0.450000X-0.325000X0.450000X0*%
%ADD35RoundRect,0.150000X0.587500X0.150000X-0.587500X0.150000X-0.587500X-0.150000X0.587500X-0.150000X0*%
%ADD36R,1.700000X1.700000*%
%ADD37C,1.700000*%
%ADD38RoundRect,0.275000X0.350000X0.275000X-0.350000X0.275000X-0.350000X-0.275000X0.350000X-0.275000X0*%
%ADD39RoundRect,0.250000X0.350000X-0.250000X0.350000X0.250000X-0.350000X0.250000X-0.350000X-0.250000X0*%
%ADD40R,0.500000X1.000000*%
%ADD41RoundRect,0.160000X-0.160000X0.197500X-0.160000X-0.197500X0.160000X-0.197500X0.160000X0.197500X0*%
%ADD42RoundRect,0.150000X-0.825000X-0.150000X0.825000X-0.150000X0.825000X0.150000X-0.825000X0.150000X0*%
%ADD43RoundRect,0.102000X0.600000X0.700000X-0.600000X0.700000X-0.600000X-0.700000X0.600000X-0.700000X0*%
%ADD44RoundRect,0.250000X0.250000X-0.250000X0.250000X0.250000X-0.250000X0.250000X-0.250000X-0.250000X0*%
%ADD45RoundRect,0.275000X-0.275000X0.350000X-0.275000X-0.350000X0.275000X-0.350000X0.275000X0.350000X0*%
%ADD46RoundRect,0.075000X0.662500X0.075000X-0.662500X0.075000X-0.662500X-0.075000X0.662500X-0.075000X0*%
%ADD47RoundRect,0.075000X0.075000X0.662500X-0.075000X0.662500X-0.075000X-0.662500X0.075000X-0.662500X0*%
%ADD48R,2.600000X3.100000*%
%ADD49R,1.550000X0.600000*%
G04 APERTURE END LIST*
D10*
X30987500Y-14090000D03*
X29792500Y-14090000D03*
D11*
X44022500Y-55590000D03*
X45157500Y-55590000D03*
D12*
X38652500Y-15140000D03*
X38652500Y-17040000D03*
X40527500Y-16090000D03*
D13*
X20590000Y-31590000D03*
D14*
X21906250Y-26140000D03*
X21906250Y-27090000D03*
X21906250Y-28040000D03*
X24606250Y-28040000D03*
X24606250Y-26140000D03*
D15*
X16000000Y-16000000D03*
D10*
X46590000Y-39590000D03*
X45395000Y-39590000D03*
D16*
X21428498Y-45944342D03*
X22623498Y-45944342D03*
D17*
X58470740Y-31048634D03*
X58470740Y-29853634D03*
D10*
X27987500Y-14090000D03*
X26792500Y-14090000D03*
X50187500Y-51590000D03*
X48992500Y-51590000D03*
D16*
X57373240Y-32451134D03*
X58568240Y-32451134D03*
D11*
X26522500Y-39090000D03*
X27657500Y-39090000D03*
D17*
X43090000Y-33687500D03*
X43090000Y-32492500D03*
D13*
X66090000Y-48590000D03*
D17*
X55486684Y-31040328D03*
X55486684Y-29845328D03*
D18*
X27590000Y-48022500D03*
X27590000Y-49157500D03*
D19*
X41090000Y-18690000D03*
X41090000Y-21490000D03*
X38440000Y-21275000D03*
X35640000Y-21275000D03*
X23090000Y-50490000D03*
X23090000Y-47690000D03*
D11*
X33522500Y-49590000D03*
X34657500Y-49590000D03*
D18*
X25390000Y-19522500D03*
X25390000Y-20657500D03*
D20*
X35090000Y-33770000D03*
X35090000Y-29410000D03*
D21*
X39590000Y-39090000D03*
X38455000Y-39090000D03*
D16*
X39992500Y-35590000D03*
X41187500Y-35590000D03*
D22*
X52066182Y-34867890D03*
X52066182Y-33732890D03*
D16*
X48992500Y-58590000D03*
X50187500Y-58590000D03*
D10*
X24687500Y-36590000D03*
X23492500Y-36590000D03*
D23*
X57590000Y-50000000D03*
X57590000Y-55000000D03*
X61090000Y-50000000D03*
X61090000Y-55000000D03*
D20*
X27873750Y-33733750D03*
X27873750Y-29373750D03*
D22*
X26090000Y-48657500D03*
X26090000Y-47522500D03*
X49032125Y-34867890D03*
X49032125Y-33732890D03*
D13*
X63590000Y-25800000D03*
D17*
X52090003Y-31090000D03*
X52090003Y-29895000D03*
D11*
X38090000Y-43090000D03*
X39225000Y-43090000D03*
D15*
X16000000Y-56000000D03*
D21*
X19323750Y-28090000D03*
X18188750Y-28090000D03*
D11*
X35432500Y-23090000D03*
X36567500Y-23090000D03*
D22*
X36076068Y-48984477D03*
X36076068Y-47849477D03*
D13*
X20090000Y-21090000D03*
D24*
X18722500Y-40700000D03*
X18722500Y-46480000D03*
D25*
X19802500Y-40390000D03*
X19802500Y-41190000D03*
D26*
X19802500Y-42340000D03*
X19802500Y-43340000D03*
X19802500Y-43840000D03*
X19802500Y-44840000D03*
D25*
X19802500Y-45990000D03*
X19802500Y-46790000D03*
X19802500Y-46790000D03*
X19802500Y-45990000D03*
D26*
X19802500Y-45340000D03*
X19802500Y-44340000D03*
X19802500Y-42840000D03*
X19802500Y-41840000D03*
D25*
X19802500Y-41190000D03*
X19802500Y-40390000D03*
D27*
X19252500Y-39270000D03*
D28*
X15042500Y-39270000D03*
D27*
X19252500Y-47910000D03*
D28*
X15042500Y-47910000D03*
D10*
X38977500Y-13540000D03*
X37782500Y-13540000D03*
D13*
X63590000Y-30150000D03*
D29*
X58492503Y-28620000D03*
X58492503Y-27920000D03*
X55492503Y-28620000D03*
X55492503Y-27920000D03*
D30*
X48090003Y-21590000D03*
X51090002Y-21590000D03*
X54090001Y-21590000D03*
X57090000Y-21590000D03*
X48090003Y-24589999D03*
X51090002Y-24589999D03*
X54090001Y-24589999D03*
X57090000Y-24589999D03*
D18*
X29090000Y-36522500D03*
X29090000Y-37657500D03*
D22*
X55543167Y-34867890D03*
X55543167Y-33732890D03*
D21*
X25457500Y-18090000D03*
X24322500Y-18090000D03*
D31*
X40385000Y-41590000D03*
X38660000Y-41590000D03*
D29*
X49090003Y-28620000D03*
X49090003Y-27920000D03*
D10*
X45187500Y-35090000D03*
X43992500Y-35090000D03*
X33687500Y-14090000D03*
X32492500Y-14090000D03*
D32*
X22452500Y-42640000D03*
X22452500Y-43590000D03*
X22452500Y-44540000D03*
X24727500Y-44540000D03*
X24727500Y-43590000D03*
X24727500Y-42640000D03*
D11*
X18188750Y-26090000D03*
X19323750Y-26090000D03*
D33*
X27579000Y-25000000D03*
X33421000Y-25000000D03*
D16*
X23942500Y-15275000D03*
X25137500Y-15275000D03*
X21652293Y-41095247D03*
X22847293Y-41095247D03*
D34*
X18731250Y-24090000D03*
X20781250Y-24090000D03*
D16*
X44492500Y-29090000D03*
X45687500Y-29090000D03*
D35*
X42027500Y-25540000D03*
X42027500Y-23640000D03*
X40152500Y-24590000D03*
D36*
X36010000Y-52590000D03*
D37*
X38550000Y-52590000D03*
X41090000Y-52590000D03*
X43630000Y-52590000D03*
D35*
X42027500Y-30540000D03*
X42027500Y-28640000D03*
X40152500Y-29590000D03*
D16*
X50492500Y-45590000D03*
X51687500Y-45590000D03*
D38*
X45765000Y-27090000D03*
X43415000Y-27090000D03*
D11*
X61432626Y-37762922D03*
X62567626Y-37762922D03*
D39*
X42851730Y-16919489D03*
X42851730Y-13579489D03*
D40*
X21426425Y-38412252D03*
X21426425Y-36312252D03*
X22226425Y-38412252D03*
X22226425Y-36312252D03*
D41*
X46400000Y-50002500D03*
X46400000Y-51197500D03*
D16*
X55492500Y-44590000D03*
X56687500Y-44590000D03*
D42*
X48615000Y-39185000D03*
X48615000Y-40455000D03*
X48615000Y-41725000D03*
X48615000Y-42995000D03*
X53565000Y-42995000D03*
X53565000Y-41725000D03*
X53565000Y-40455000D03*
X53565000Y-39185000D03*
D19*
X38090000Y-31190000D03*
X38090000Y-33990000D03*
D15*
X67500000Y-56000000D03*
D43*
X39690000Y-46790000D03*
X39690000Y-44590000D03*
X38090000Y-44590000D03*
X38090000Y-46790000D03*
D13*
X51900000Y-48400000D03*
D17*
X49090003Y-31187500D03*
X49090003Y-29992500D03*
D16*
X58992500Y-44590000D03*
X60187500Y-44590000D03*
X47842503Y-32590000D03*
X49037503Y-32590000D03*
D22*
X58618941Y-34867890D03*
X58618941Y-33732890D03*
D13*
X63590000Y-21450000D03*
D11*
X53022500Y-37590000D03*
X54157500Y-37590000D03*
D15*
X67500000Y-16000000D03*
D17*
X31590000Y-32187500D03*
X31590000Y-30992500D03*
D16*
X54339184Y-32442828D03*
X55534184Y-32442828D03*
D22*
X24292604Y-32204473D03*
X24292604Y-31069473D03*
D44*
X35880000Y-16790000D03*
X35880000Y-14290000D03*
D18*
X26232862Y-27611077D03*
X26232862Y-28746077D03*
D11*
X38455000Y-40090000D03*
X39590000Y-40090000D03*
D42*
X47115000Y-53185000D03*
X47115000Y-54455000D03*
X47115000Y-55725000D03*
X47115000Y-56995000D03*
X52065000Y-56995000D03*
X52065000Y-55725000D03*
X52065000Y-54455000D03*
X52065000Y-53185000D03*
D45*
X38090000Y-26415000D03*
X38090000Y-28765000D03*
D16*
X50895003Y-32492500D03*
X52090003Y-32492500D03*
D10*
X45687500Y-31090000D03*
X44492500Y-31090000D03*
D11*
X41277877Y-46118157D03*
X42412877Y-46118157D03*
X35322500Y-19275000D03*
X36457500Y-19275000D03*
D13*
X63590000Y-34500000D03*
D29*
X52090003Y-28620000D03*
X52090003Y-27920000D03*
D10*
X24914607Y-39065206D03*
X23719607Y-39065206D03*
D11*
X35322500Y-18275000D03*
X36457500Y-18275000D03*
D13*
X17090000Y-31590000D03*
D46*
X35752500Y-46340000D03*
X35752500Y-45840000D03*
X35752500Y-45340000D03*
X35752500Y-44840000D03*
X35752500Y-44340000D03*
X35752500Y-43840000D03*
X35752500Y-43340000D03*
X35752500Y-42840000D03*
X35752500Y-42340000D03*
X35752500Y-41840000D03*
X35752500Y-41340000D03*
X35752500Y-40840000D03*
D47*
X34340000Y-39427500D03*
X33840000Y-39427500D03*
X33340000Y-39427500D03*
X32840000Y-39427500D03*
X32340000Y-39427500D03*
X31840000Y-39427500D03*
X31340000Y-39427500D03*
X30840000Y-39427500D03*
X30340000Y-39427500D03*
X29840000Y-39427500D03*
X29340000Y-39427500D03*
X28840000Y-39427500D03*
D46*
X27427500Y-40840000D03*
X27427500Y-41340000D03*
X27427500Y-41840000D03*
X27427500Y-42340000D03*
X27427500Y-42840000D03*
X27427500Y-43340000D03*
X27427500Y-43840000D03*
X27427500Y-44340000D03*
X27427500Y-44840000D03*
X27427500Y-45340000D03*
X27427500Y-45840000D03*
X27427500Y-46340000D03*
D47*
X28840000Y-47752500D03*
X29340000Y-47752500D03*
X29840000Y-47752500D03*
X30340000Y-47752500D03*
X30840000Y-47752500D03*
X31340000Y-47752500D03*
X31840000Y-47752500D03*
X32340000Y-47752500D03*
X32840000Y-47752500D03*
X33340000Y-47752500D03*
X33840000Y-47752500D03*
X34340000Y-47752500D03*
D42*
X57115000Y-39185000D03*
X57115000Y-40455000D03*
X57115000Y-41725000D03*
X57115000Y-42995000D03*
X62065000Y-42995000D03*
X62065000Y-41725000D03*
X62065000Y-40455000D03*
X62065000Y-39185000D03*
D48*
X30240000Y-18640000D03*
D49*
X32940000Y-20545000D03*
X32940000Y-19275000D03*
X32940000Y-18005000D03*
X32940000Y-16735000D03*
X27540000Y-16735000D03*
X27540000Y-18005000D03*
X27540000Y-19275000D03*
X27540000Y-20545000D03*
D11*
X35432500Y-24500000D03*
X36567500Y-24500000D03*
M02*
