M48
; DRILL file KiCad 10.0.6 date 2026-09-29T12:08:36
; FORMAT={-:-/ absolute / metric / decimal}
; #@! TF.CreationDate,2026-09-29T12:08:36+10:00
; #@! TF.GenerationSoftware,Kicad,Pcbnew,10.0.6
; #@! TF.FileFunction,Plated,1,4,PTH
FMAT,2
METRIC
; #@! TA.AperFunction,Plated,PTH,ViaDrill
T1C0.300
; #@! TA.AperFunction,Plated,PTH,ComponentDrill
T2C0.300
; #@! TA.AperFunction,Plated,PTH,ViaDrill
T3C0.400
; #@! TA.AperFunction,Plated,PTH,ComponentDrill
T4C0.600
; #@! TA.AperFunction,Plated,PTH,ComponentDrill
T5C1.000
; #@! TA.AperFunction,Plated,PTH,ComponentDrill
T6C1.067
; #@! TA.AperFunction,Plated,PTH,ComponentDrill
T7C1.200
; #@! TA.AperFunction,Plated,PTH,ComponentDrill
T8C3.200
%
G90
G05
T1
X15.0Y-46.0
X15.5Y-41.0
X18.17Y-27.107
X18.5Y-42.0
X18.5Y-45.0
X21.114Y-44.637
X21.237Y-43.191
X22.0Y-22.5
X22.005Y-23.99
X22.265Y-45.393
X22.296Y-41.811
X22.43Y-35.253
X23.256Y-27.09
X23.449Y-25.446
X23.878Y-37.408
X24.236Y-17.221
X24.5Y-22.0
X24.703Y-16.275
X24.9Y-29.0
X25.09Y-47.09
X25.5Y-33.0
X26.0Y-22.5
X26.0Y-36.5
X26.008Y-45.833
X26.841Y-47.223
X27.0Y-15.5
X27.165Y-39.949
X27.5Y-35.5
X27.614Y-28.096
X27.874Y-31.554
X28.331Y-37.547
X29.0Y-41.5
X29.0Y-43.0
X29.0Y-44.5
X29.09Y-46.5
X29.5Y-22.0
X29.5Y-28.0
X29.995Y-15.281
X30.0Y-41.0
X30.5Y-23.5
X30.5Y-25.0
X30.5Y-29.5
X30.5Y-35.0
X30.5Y-43.0
X30.84Y-36.84
X31.0Y-22.0
X31.0Y-44.5
X31.0Y-46.0
X31.192Y-51.231
X31.34Y-41.0
X31.5Y-28.0
X31.5Y-49.5
X31.727Y-43.0
X32.0Y-33.5
X32.696Y-15.675
X32.814Y-51.59
X32.914Y-34.757
X33.0Y-28.0
X33.0Y-29.5
X33.0Y-41.0
X33.0Y-44.5
X33.0Y-46.0
X33.153Y-50.841
X33.19Y-55.649
X33.5Y-36.5
X33.5Y-37.5
X33.874Y-33.874
X34.0Y-45.0
X34.0Y-46.0
X34.339Y-41.943
X34.34Y-43.34
X34.428Y-17.077
X34.5Y-13.5
X34.5Y-20.0
X34.657Y-27.842
X35.0Y-36.5
X35.09Y-31.59
X35.09Y-37.59
X35.111Y-39.328
X35.323Y-48.019
X35.362Y-49.857
X35.5Y-15.5
X35.99Y-35.59
X36.304Y-28.279
X37.0Y-22.0
X37.0Y-23.839
X37.105Y-41.606
X37.335Y-36.386
X37.416Y-40.416
X38.0Y-32.5
X39.0Y-16.0
X39.0Y-35.5
X39.5Y-26.0
X39.5Y-28.5
X39.55Y-30.958
X40.0Y-33.0
X40.09Y-43.038
X40.59Y-39.09
X40.641Y-39.99
X41.0Y-15.0
X41.0Y-20.0
X41.0Y-44.0
X41.0Y-47.5
X41.589Y-22.73
X41.59Y-34.59
X41.59Y-42.09
X42.0Y-33.0
X42.09Y-26.59
X42.307Y-31.743
X42.59Y-21.59
X43.0Y-15.5
X43.0Y-24.5
X43.372Y-54.65
X43.5Y-22.5
X43.5Y-23.5
X43.5Y-29.0
X43.5Y-38.5
X43.59Y-30.59
X44.0Y-17.5
X44.5Y-20.5
X44.5Y-23.0
X44.59Y-39.59
X44.781Y-30.024
X44.91Y-54.776
X45.4Y-50.0
X46.5Y-41.0
X46.9Y-42.221
X47.0Y-26.0
X47.0Y-27.0
X47.0Y-28.5
X47.5Y-29.5
X47.5Y-31.5
X47.5Y-51.0
X48.0Y-58.5
X49.0Y-26.0
X49.0Y-45.0
X49.0Y-53.5
X49.0Y-54.5
X49.0Y-55.5
X49.0Y-56.5
X49.5Y-20.5
X50.0Y-53.5
X50.0Y-54.5
X50.0Y-55.5
X50.0Y-56.5
X50.257Y-42.243
X50.5Y-34.0
X50.582Y-41.582
X50.6Y-43.238
X51.0Y-30.0
X51.0Y-31.0
X51.5Y-50.5
X51.929Y-43.333
X51.955Y-26.045
X52.056Y-41.5
X53.07Y-45.786
X53.09Y-44.09
X53.296Y-26.06
X53.296Y-27.06
X54.0Y-30.0
X54.0Y-31.0
X54.0Y-34.0
X54.0Y-35.0
X54.09Y-45.09
X54.173Y-36.715
X55.5Y-26.0
X55.5Y-42.0
X55.5Y-43.0
X55.595Y-39.964
X56.5Y-53.0
X57.437Y-29.09
X57.5Y-30.5
X57.5Y-31.5
X57.5Y-34.0
X57.5Y-35.0
X58.0Y-38.0
X58.0Y-45.0
X58.5Y-26.0
X58.629Y-39.814
X59.0Y-24.5
X59.5Y-42.5
X59.5Y-48.0
X59.5Y-51.0
X59.5Y-56.5
X60.0Y-40.5
X60.5Y-31.5
X61.0Y-27.5
X61.0Y-35.5
X61.437Y-44.7
X62.5Y-52.5
X63.379Y-37.248
T2
X29.59Y-16.69
X29.59Y-17.99
X29.59Y-19.29
X29.59Y-20.59
X30.89Y-16.69
X30.89Y-17.99
X30.89Y-19.29
X30.89Y-20.59
T3
X24.838Y-23.686
X31.798Y-14.829
X36.5Y-20.415
X36.541Y-25.805
T5
X17.09Y-31.59
X20.09Y-21.09
X20.59Y-31.59
X36.01Y-52.59
X38.55Y-52.59
X41.09Y-52.59
X43.63Y-52.59
X51.9Y-48.4
X63.59Y-21.45
X63.59Y-25.8
X63.59Y-30.15
X63.59Y-34.5
X66.09Y-48.59
T6
X48.09Y-21.59
X48.09Y-24.59
X51.09Y-21.59
X51.09Y-24.59
X54.09Y-21.59
X54.09Y-24.59
X57.09Y-21.59
X57.09Y-24.59
T7
X57.59Y-50.0
X57.59Y-55.0
X61.09Y-50.0
X61.09Y-55.0
T8
X16.0Y-16.0
X16.0Y-56.0
X67.5Y-16.0
X67.5Y-56.0
T4
X15.342Y-39.27G85X14.742Y-39.27
G05
X15.342Y-47.91G85X14.742Y-47.91
G05
X19.702Y-39.27G85X18.803Y-39.27
G05
X19.703Y-47.91G85X18.802Y-47.91
G05
M30
